<svg width="214" height="271" viewBox="0 0 214 271" fill="none" xmlns="http://www.w3.org/2000/svg">
<path d="M0 0L212.105 0C212.105 0 221.756 39.6156 197.5 44C116.951 58.56 77.4162 -25.6881 46 36.036C27.4869 72.4091 33.2833 144.144 33.2833 144.144L165.857 144.144C165.857 144.144 161.408 190.055 159.5 203.5C149 277.5 0 182 0 182L0 0Z" fill="white"/>
<path d="M212 270.611H3.1196C3.1196 270.611 -4.4003 230.995 14.5 226.611C77.2649 212.051 134.584 296.299 166 234.575C184.513 198.202 178.717 126.467 178.717 126.467H46.143C46.143 126.467 50.5922 80.5562 52.5 67.111C63 -6.88898 212 88.611 212 88.611V270.611Z" fill="white"/>
</svg>
