<svg width="107" height="136" viewBox="0 0 107 136" fill="none" xmlns="http://www.w3.org/2000/svg">
<g clip-path="url(#clip0_2_1232)">
<path d="M0 0H106.052C106.052 0 110.878 19.8809 98.75 22.0812C58.4755 29.388 38.7081 -12.8914 23 18.0845C13.7435 36.3381 16.6416 72.338 16.6416 72.338H82.9285C82.9285 72.338 80.704 95.3782 79.75 102.125C74.5 139.262 0 91.3358 0 91.3358V0Z" fill="#D0BCFF"/>
<path d="M106 135.805H1.55981C1.55981 135.805 -2.20013 115.924 7.25001 113.724C38.6325 106.417 67.292 148.696 83 117.72C92.2565 99.4667 89.3585 63.4669 89.3585 63.4669H23.0715C23.0715 63.4669 25.2961 40.4268 26.25 33.6793C31.5 -3.45718 106 44.469 106 44.469V135.805Z" fill="url(#paint0_linear_2_1232)"/>
</g>
<defs>
<linearGradient id="paint0_linear_2_1232" x1="53" y1="43.5" x2="106" y2="121.5" gradientUnits="userSpaceOnUse">
<stop stop-color="#EB499B"/>
<stop offset="1" stop-color="#8E5CF3"/>
</linearGradient>
<clipPath id="clip0_2_1232">
<rect width="107" height="136" fill="white"/>
</clipPath>
</defs>
</svg>
