<svg width="1211" height="170" viewBox="0 0 1211 170" fill="none" xmlns="http://www.w3.org/2000/svg">
<path d="M169.375 84.1875C169.375 69.8125 173.021 58.3958 180.312 49.9375C187.604 41.4792 198.125 37.25 211.875 37.25C219.792 37.25 226.5 38.4792 232 40.9375C237.5 43.3958 241.375 46.9583 243.625 51.625C245.125 54.7083 244.875 56.7917 242.875 57.875L235.375 61.875C232.75 63.2917 230.583 62.5 228.875 59.5C227.792 57.5833 225.771 55.8542 222.812 54.3125C219.896 52.7708 216.458 52 212.5 52C203.75 52 197.625 54.7708 194.125 60.3125C190.625 65.8125 188.875 73.7708 188.875 84.1875C188.875 94.6042 190.625 102.583 194.125 108.125C197.625 113.625 203.75 116.375 212.5 116.375C217.208 116.375 221.167 115.312 224.375 113.188C227.625 111.062 229.875 109.042 231.125 107.125C233.167 104 235.333 103.208 237.625 104.75L245.125 109.75C247.167 111.125 247.375 113.208 245.75 116C243.333 120.167 239.188 123.729 233.312 126.688C227.438 129.646 220.292 131.125 211.875 131.125C198.333 131.125 187.854 126.896 180.438 118.438C173.062 109.979 169.375 98.5625 169.375 84.1875Z" fill="url(#paint0_linear_2_1235)"/>
<path d="M264.875 129C262.375 129 261.125 127.75 261.125 125.25V67.125C261.125 64.625 262.375 63.375 264.875 63.375H274.75C277.25 63.375 278.5 64.625 278.5 67.125V72.25H278.75C279.833 69.5833 281.646 67.2292 284.188 65.1875C286.729 63.1458 289.729 62.125 293.188 62.125C295.562 62.125 297.521 62.4167 299.062 63C300.521 63.5417 301.083 64.5417 300.75 66L299 73.4375C298.625 75.1042 297.5 75.6042 295.625 74.9375C294.542 74.5625 293.5 74.375 292.5 74.375C288.5 74.375 285.188 76.7708 282.562 81.5625C279.938 86.3542 278.625 93.3333 278.625 102.5V125.25C278.625 127.75 277.375 129 274.875 129H264.875Z" fill="url(#paint1_linear_2_1235)"/>
<path d="M306.75 96.1875C306.75 85.5625 309.479 77.2292 314.938 71.1875C320.438 65.1458 328.604 62.125 339.438 62.125C350.271 62.125 358.417 65.1458 363.875 71.1875C369.375 77.2292 372.125 85.5625 372.125 96.1875C372.125 106.812 369.375 115.146 363.875 121.188C358.417 127.229 350.271 130.25 339.438 130.25C328.604 130.25 320.438 127.229 314.938 121.188C309.479 115.146 306.75 106.812 306.75 96.1875ZM325.25 96.1875C325.25 104.104 326.458 109.729 328.875 113.062C331.333 116.354 334.854 118 339.438 118C344.021 118 347.521 116.354 349.938 113.062C352.396 109.729 353.625 104.104 353.625 96.1875C353.625 88.2708 352.396 82.6667 349.938 79.375C347.521 76.0417 344.021 74.375 339.438 74.375C334.854 74.375 331.333 76.0417 328.875 79.375C326.458 82.6667 325.25 88.2708 325.25 96.1875Z" fill="url(#paint2_linear_2_1235)"/>
<path d="M384.312 124.625C382.271 123.167 381.708 121.604 382.625 119.938L385.812 114.125C386.938 112.042 388.688 111.792 391.062 113.375C393.438 114.958 396.229 116.125 399.438 116.875C402.688 117.625 405.646 118 408.312 118C410.188 118 411.938 117.812 413.562 117.438C415.188 117.062 416.562 116.333 417.688 115.25C418.812 114.167 419.375 112.583 419.375 110.5C419.375 109.25 419.042 108.188 418.375 107.312C417.708 106.438 416.854 105.771 415.812 105.312C414.771 104.854 413.667 104.479 412.5 104.188C410.958 103.812 408.729 103.188 405.812 102.312C402.938 101.438 400.167 100.417 397.5 99.25C395.292 98.2917 393.125 96.9583 391 95.25C388.917 93.5 387.375 91.5625 386.375 89.4375C385.417 87.3125 384.938 84.6875 384.938 81.5625C384.938 77.3542 386.146 73.6667 388.562 70.5C391.021 67.3333 394.188 65.1458 398.062 63.9375C401.938 62.7292 406.771 62.125 412.562 62.125C416.479 62.125 420.292 62.6875 424 63.8125C427.708 64.9375 430.354 66 431.938 67C434.438 68.5833 435.062 70.2708 433.812 72.0625L430 77.625C428.833 79.2917 426.958 79.4167 424.375 78C422.417 76.9167 420.479 76.0417 418.562 75.375C416.688 74.7083 414.583 74.375 412.25 74.375C410.667 74.375 409.146 74.5417 407.688 74.875C406.229 75.2083 404.979 75.8333 403.938 76.75C402.938 77.6667 402.438 78.875 402.438 80.375C402.438 81.9583 402.896 83.2083 403.812 84.125C404.771 85 405.854 85.6458 407.062 86.0625C408.312 86.4792 409.5 86.875 410.625 87.25C412.958 88 415.312 88.7292 417.688 89.4375C420.062 90.1042 422.479 90.9167 424.938 91.875C427.062 92.7083 429.125 93.8958 431.125 95.4375C433.125 96.9792 434.583 98.9375 435.5 101.312C436.417 103.688 436.875 106.396 436.875 109.438C436.875 113.479 435.667 117.229 433.25 120.688C430.833 124.146 427.646 126.604 423.688 128.062C419.729 129.521 415.125 130.25 409.875 130.25C404 130.25 399 129.833 394.875 129C390.75 128.167 387.229 126.708 384.312 124.625Z" fill="url(#paint3_linear_2_1235)"/>
<path d="M447.188 124.625C445.146 123.167 444.583 121.604 445.5 119.938L448.688 114.125C449.812 112.042 451.562 111.792 453.938 113.375C456.312 114.958 459.104 116.125 462.312 116.875C465.562 117.625 468.521 118 471.188 118C473.062 118 474.812 117.812 476.438 117.438C478.062 117.062 479.438 116.333 480.562 115.25C481.688 114.167 482.25 112.583 482.25 110.5C482.25 109.25 481.917 108.188 481.25 107.312C480.583 106.438 479.729 105.771 478.688 105.312C477.646 104.854 476.542 104.479 475.375 104.188C473.833 103.812 471.604 103.188 468.688 102.312C465.812 101.438 463.042 100.417 460.375 99.25C458.167 98.2917 456 96.9583 453.875 95.25C451.792 93.5 450.25 91.5625 449.25 89.4375C448.292 87.3125 447.812 84.6875 447.812 81.5625C447.812 77.3542 449.021 73.6667 451.438 70.5C453.896 67.3333 457.062 65.1458 460.938 63.9375C464.812 62.7292 469.646 62.125 475.438 62.125C479.354 62.125 483.167 62.6875 486.875 63.8125C490.583 64.9375 493.229 66 494.812 67C497.312 68.5833 497.938 70.2708 496.688 72.0625L492.875 77.625C491.708 79.2917 489.833 79.4167 487.25 78C485.292 76.9167 483.354 76.0417 481.438 75.375C479.562 74.7083 477.458 74.375 475.125 74.375C473.542 74.375 472.021 74.5417 470.562 74.875C469.104 75.2083 467.854 75.8333 466.812 76.75C465.812 77.6667 465.312 78.875 465.312 80.375C465.312 81.9583 465.771 83.2083 466.688 84.125C467.646 85 468.729 85.6458 469.938 86.0625C471.188 86.4792 472.375 86.875 473.5 87.25C475.833 88 478.188 88.7292 480.562 89.4375C482.938 90.1042 485.354 90.9167 487.812 91.875C489.938 92.7083 492 93.8958 494 95.4375C496 96.9792 497.458 98.9375 498.375 101.312C499.292 103.688 499.75 106.396 499.75 109.438C499.75 113.479 498.542 117.229 496.125 120.688C493.708 124.146 490.521 126.604 486.562 128.062C482.604 129.521 478 130.25 472.75 130.25C466.875 130.25 461.875 129.833 457.75 129C453.625 128.167 450.104 126.708 447.188 124.625Z" fill="url(#paint4_linear_2_1235)"/>
<path d="M508.25 84.1875C508.25 69.8125 511.896 58.3958 519.188 49.9375C526.479 41.4792 537 37.25 550.75 37.25C558.667 37.25 565.375 38.4792 570.875 40.9375C576.375 43.3958 580.25 46.9583 582.5 51.625C584 54.7083 583.75 56.7917 581.75 57.875L574.25 61.875C571.625 63.2917 569.458 62.5 567.75 59.5C566.667 57.5833 564.646 55.8542 561.688 54.3125C558.771 52.7708 555.333 52 551.375 52C542.625 52 536.5 54.7708 533 60.3125C529.5 65.8125 527.75 73.7708 527.75 84.1875C527.75 94.6042 529.5 102.583 533 108.125C536.5 113.625 542.625 116.375 551.375 116.375C556.083 116.375 560.042 115.312 563.25 113.188C566.5 111.062 568.75 109.042 570 107.125C572.042 104 574.208 103.208 576.5 104.75L584 109.75C586.042 111.125 586.25 113.208 584.625 116C582.208 120.167 578.062 123.729 572.188 126.688C566.312 129.646 559.167 131.125 550.75 131.125C537.208 131.125 526.729 126.896 519.312 118.438C511.938 109.979 508.25 98.5625 508.25 84.1875Z" fill="url(#paint5_linear_2_1235)"/>
<path d="M603.75 129C601.25 129 600 127.75 600 125.25V40.5C600 38 601.25 36.75 603.75 36.75H613.75C616.25 36.75 617.5 38 617.5 40.5V65.75C617.5 67.4167 617.417 69.0833 617.25 70.75H617.625C619.542 67.4583 621.979 65.2083 624.938 64C627.896 62.75 631.458 62.125 635.625 62.125C642.125 62.125 647.5 64.1667 651.75 68.25C656 72.3333 658.125 79.7917 658.125 90.625V125.25C658.125 127.75 656.875 129 654.375 129H644.375C641.875 129 640.625 127.75 640.625 125.25V95.125C640.625 86.0417 640 80.3125 638.75 77.9375C637.5 75.5625 634.812 74.375 630.688 74.375C626.312 74.375 623.021 76.0833 620.812 79.5C618.604 82.875 617.5 89.9167 617.5 100.625V125.25C617.5 127.75 616.25 129 613.75 129H603.75Z" fill="url(#paint6_linear_2_1235)"/>
<path d="M671.5 111.5C671.5 103.167 675.479 97.125 683.438 93.375C691.396 89.625 700.479 87.625 710.688 87.375V84.875C710.688 81.0417 709.729 78.3333 707.812 76.75C705.896 75.1667 703.229 74.375 699.812 74.375C697.396 74.375 695.25 74.7292 693.375 75.4375C691.542 76.1042 689.938 76.8958 688.562 77.8125C687.229 78.6875 686.021 79.5833 684.938 80.5C683.021 82.1667 681.438 82.25 680.188 80.75L675 74.375C673.708 72.7917 674.021 71.1667 675.938 69.5C677.396 68.2083 679.083 67.0833 681 66.125C682.958 65.1667 685.542 64.2708 688.75 63.4375C691.958 62.5625 696.125 62.125 701.25 62.125C709.917 62.125 716.562 64.125 721.188 68.125C725.854 72.125 728.188 78.0208 728.188 85.8125V125.25C728.188 127.75 726.938 129 724.438 129H714.188C711.938 129 710.812 127.75 710.812 125.25V123.375H710.688C708.229 125.75 705.271 127.5 701.812 128.625C698.396 129.708 695.25 130.25 692.375 130.25C685.542 130.25 680.354 128.583 676.812 125.25C673.271 121.875 671.5 117.292 671.5 111.5ZM690 111.125C690 112.583 690.292 113.854 690.875 114.938C691.458 115.979 692.375 116.75 693.625 117.25C694.875 117.75 696.271 118 697.812 118C699.938 118 702 117.708 704 117.125C706 116.542 708.229 115.167 710.688 113V99.4375C703.688 100.229 699 101.25 696.625 102.5C694.25 103.75 692.542 105.042 691.5 106.375C690.5 107.708 690 109.292 690 111.125Z" fill="url(#paint7_linear_2_1235)"/>
<path d="M749 129C746.5 129 745.25 127.75 745.25 125.25V67.125C745.25 64.625 746.5 63.375 749 63.375H759C761.5 63.375 762.75 64.625 762.75 67.125V125.25C762.75 127.75 761.5 129 759 129H749ZM749 53.75C746.5 53.75 745.25 52.5 745.25 50V42C745.25 39.5 746.5 38.25 749 38.25H759C761.5 38.25 762.75 39.5 762.75 42V50C762.75 52.5 761.5 53.75 759 53.75H749Z" fill="url(#paint8_linear_2_1235)"/>
<path d="M783.5 129C781 129 779.75 127.75 779.75 125.25V67.125C779.75 64.625 781 63.375 783.5 63.375H793.375C795.875 63.375 797.125 64.625 797.125 67.125V70.75H797.375C799.292 67.4583 801.729 65.2083 804.688 64C807.646 62.75 811.208 62.125 815.375 62.125C821.875 62.125 827.25 64.1667 831.5 68.25C835.75 72.3333 837.875 79.7917 837.875 90.625V125.25C837.875 127.75 836.625 129 834.125 129H824.125C821.625 129 820.375 127.75 820.375 125.25V95.125C820.375 86.0417 819.75 80.3125 818.5 77.9375C817.25 75.5625 814.562 74.375 810.438 74.375C806.062 74.375 802.771 76.0833 800.562 79.5C798.354 82.875 797.25 89.9167 797.25 100.625V125.25C797.25 127.75 796 129 793.5 129H783.5Z" fill="url(#paint9_linear_2_1235)"/>
<path d="M875.812 126C873.229 124.042 872.604 122.062 873.938 120.062L878.75 112.812C880.333 110.438 882.646 110.312 885.688 112.438C888.021 114.062 891.062 115.75 894.812 117.5C898.604 119.208 902.583 120.062 906.75 120.062C909.667 120.062 912.479 119.729 915.188 119.062C917.896 118.396 919.958 117.104 921.375 115.188C922.792 113.271 923.5 111 923.5 108.375C923.5 106.5 923.188 104.854 922.562 103.438C921.938 102.021 920.917 100.854 919.5 99.9375C918.083 99.0208 916.625 98.25 915.125 97.625C912.5 96.5417 909.188 95.4792 905.188 94.4375C901.229 93.3542 897.312 92.0625 893.438 90.5625C889.979 89.2292 886.812 87.3958 883.938 85.0625C881.062 82.7292 878.833 80.1042 877.25 77.1875C875.667 74.2708 874.875 70.375 874.875 65.5C874.875 59.7083 876.75 54.75 880.5 50.625C884.25 46.5 888.562 43.8542 893.438 42.6875C898.312 41.5208 903.229 40.9375 908.188 40.9375C913.104 40.9375 918.167 41.6875 923.375 43.1875C928.625 44.6875 932.583 46.5625 935.25 48.8125C937.875 51.0208 938.521 53.0208 937.188 54.8125L932.125 61.625C930.417 63.9583 928.125 64.1458 925.25 62.1875C923.417 60.9375 920.896 59.5417 917.688 58C914.521 56.4583 911.208 55.6875 907.75 55.6875C905.292 55.6875 903.021 55.8958 900.938 56.3125C898.896 56.7292 897.083 57.7292 895.5 59.3125C893.917 60.8958 893.125 62.8542 893.125 65.1875C893.125 67.4375 893.708 69.2708 894.875 70.6875C896.042 72.0625 897.333 73.1042 898.75 73.8125C900.167 74.4792 901.604 75.0417 903.062 75.5C907.562 76.9583 911.583 78.25 915.125 79.375C918.667 80.4583 921.938 81.6667 924.938 83C929.104 84.875 932.292 86.75 934.5 88.625C936.708 90.5 938.521 93.0625 939.938 96.3125C941.396 99.5625 942.125 103.438 942.125 107.938C942.125 114.604 940 120.125 935.75 124.5C931.5 128.833 926.771 131.625 921.562 132.875C916.396 134.167 911.354 134.812 906.438 134.812C899.188 134.812 893.292 134.104 888.75 132.688C884.208 131.312 879.896 129.083 875.812 126Z" fill="#D0BCFF"/>
<path d="M950.5 71.9375C949.583 68.6875 950.271 67.0625 952.562 67.0625H963.125C965.125 67.0625 966.375 68.125 966.875 70.25L975.312 106.875C975.812 109 976.25 111.042 976.625 113C977 114.958 977.229 116.562 977.312 117.812H977.688C977.771 116.562 978 114.938 978.375 112.938C978.75 110.896 979.188 108.875 979.688 106.875L988.562 70.25C989.062 68.125 990.312 67.0625 992.312 67.0625H1003.69C1005.69 67.0625 1006.94 68.125 1007.44 70.25L1016.31 106.875C1016.81 108.875 1017.25 110.896 1017.62 112.938C1018 114.938 1018.23 116.562 1018.31 117.812H1018.69C1018.77 116.562 1019 114.958 1019.38 113C1019.75 111.042 1020.19 109 1020.69 106.875L1029.12 70.25C1029.62 68.125 1030.88 67.0625 1032.88 67.0625H1043.44C1045.73 67.0625 1046.42 68.6875 1045.5 71.9375L1029.25 128.5C1028.46 131.292 1026.94 132.688 1024.69 132.688H1013.38C1011 132.688 1009.48 131.292 1008.81 128.5L999.75 91.4375C999.208 89.3125 998.812 87.6042 998.562 86.3125C998.354 85.0208 998.208 83.5833 998.125 82H997.875C997.792 83.5833 997.625 85.0208 997.375 86.3125C997.167 87.6042 996.792 89.3125 996.25 91.4375L987.188 128.5C986.521 131.292 985 132.688 982.625 132.688H971.312C969.062 132.688 967.542 131.292 966.75 128.5L950.5 71.9375Z" fill="#D0BCFF"/>
<path d="M1051.75 115.188C1051.75 106.854 1055.73 100.812 1063.69 97.0625C1071.65 93.3125 1080.73 91.3125 1090.94 91.0625V88.5625C1090.94 84.7292 1089.98 82.0208 1088.06 80.4375C1086.15 78.8542 1083.48 78.0625 1080.06 78.0625C1077.65 78.0625 1075.5 78.4167 1073.62 79.125C1071.79 79.7917 1070.19 80.5833 1068.81 81.5C1067.48 82.375 1066.27 83.2708 1065.19 84.1875C1063.27 85.8542 1061.69 85.9375 1060.44 84.4375L1055.25 78.0625C1053.96 76.4792 1054.27 74.8542 1056.19 73.1875C1057.65 71.8958 1059.33 70.7708 1061.25 69.8125C1063.21 68.8542 1065.79 67.9583 1069 67.125C1072.21 66.25 1076.38 65.8125 1081.5 65.8125C1090.17 65.8125 1096.81 67.8125 1101.44 71.8125C1106.1 75.8125 1108.44 81.7083 1108.44 89.5V128.938C1108.44 131.438 1107.19 132.688 1104.69 132.688H1094.44C1092.19 132.688 1091.06 131.438 1091.06 128.938V127.062H1090.94C1088.48 129.438 1085.52 131.188 1082.06 132.312C1078.65 133.396 1075.5 133.938 1072.62 133.938C1065.79 133.938 1060.6 132.271 1057.06 128.938C1053.52 125.562 1051.75 120.979 1051.75 115.188ZM1070.25 114.812C1070.25 116.271 1070.54 117.542 1071.12 118.625C1071.71 119.667 1072.62 120.438 1073.88 120.938C1075.12 121.438 1076.52 121.688 1078.06 121.688C1080.19 121.688 1082.25 121.396 1084.25 120.812C1086.25 120.229 1088.48 118.854 1090.94 116.688V103.125C1083.94 103.917 1079.25 104.938 1076.88 106.188C1074.5 107.438 1072.79 108.729 1071.75 110.062C1070.75 111.396 1070.25 112.979 1070.25 114.812Z" fill="#D0BCFF"/>
<path d="M1129.25 157.688C1126.75 157.688 1125.5 156.438 1125.5 153.938V70.8125C1125.5 68.3125 1126.75 67.0625 1129.25 67.0625H1139.12C1141.21 67.0625 1142.33 68.3125 1142.5 70.8125L1142.75 74.4375H1143C1145.17 70.8542 1147.58 68.5208 1150.25 67.4375C1152.92 66.3542 1156.12 65.8125 1159.88 65.8125C1169.67 65.8125 1176.54 69.2083 1180.5 76C1184.5 82.75 1186.5 90.7083 1186.5 99.875C1186.5 109.042 1184.5 117.021 1180.5 123.812C1176.54 130.562 1169.67 133.938 1159.88 133.938C1156.12 133.938 1152.92 133.396 1150.25 132.312C1147.58 131.229 1145.17 128.896 1143 125.312H1142.75C1142.92 126.979 1143 128.646 1143 130.312V153.938C1143 156.438 1141.75 157.688 1139.25 157.688H1129.25ZM1143 102.688C1143 108.312 1144.1 112.896 1146.31 116.438C1148.56 119.938 1151.25 121.688 1154.38 121.688C1160 121.688 1163.67 119.729 1165.38 115.812C1167.12 111.854 1168 106.542 1168 99.875C1168 93.2083 1167.12 87.9167 1165.38 84C1163.67 80.0417 1160 78.0625 1154.38 78.0625C1151.25 78.0625 1148.56 79.8333 1146.31 83.375C1144.1 86.875 1143 91.4375 1143 97.0625V102.688Z" fill="#D0BCFF"/>
<g clip-path="url(#clip0_2_1235)">
<path d="M25 17H131.052C131.052 17 135.878 36.8809 123.75 39.0812C83.4755 46.388 63.7081 4.10855 48 35.0845C38.7435 53.3381 41.6416 89.338 41.6416 89.338H107.928C107.928 89.338 105.704 112.378 104.75 119.125C99.5 156.262 25 108.336 25 108.336V17Z" fill="#D0BCFF"/>
<path d="M131 152.805H26.5598C26.5598 152.805 22.7999 132.924 32.25 130.724C63.6325 123.417 92.292 165.696 108 134.72C117.257 116.467 114.359 80.4669 114.359 80.4669H48.0715C48.0715 80.4669 50.2961 57.4268 51.25 50.6793C56.5 13.5428 131 61.469 131 61.469V152.805Z" fill="url(#paint10_linear_2_1235)"/>
</g>
<defs>
<linearGradient id="paint0_linear_2_1235" x1="169.375" y1="97.2188" x2="1186.5" y2="97.2188" gradientUnits="userSpaceOnUse">
<stop stop-color="#8D5CF4"/>
<stop offset="1" stop-color="#E84A9D"/>
</linearGradient>
<linearGradient id="paint1_linear_2_1235" x1="169.375" y1="97.2188" x2="1186.5" y2="97.2188" gradientUnits="userSpaceOnUse">
<stop stop-color="#8D5CF4"/>
<stop offset="1" stop-color="#E84A9D"/>
</linearGradient>
<linearGradient id="paint2_linear_2_1235" x1="169.375" y1="97.2188" x2="1186.5" y2="97.2188" gradientUnits="userSpaceOnUse">
<stop stop-color="#8D5CF4"/>
<stop offset="1" stop-color="#E84A9D"/>
</linearGradient>
<linearGradient id="paint3_linear_2_1235" x1="169.375" y1="97.2188" x2="1186.5" y2="97.2188" gradientUnits="userSpaceOnUse">
<stop stop-color="#8D5CF4"/>
<stop offset="1" stop-color="#E84A9D"/>
</linearGradient>
<linearGradient id="paint4_linear_2_1235" x1="169.375" y1="97.2188" x2="1186.5" y2="97.2188" gradientUnits="userSpaceOnUse">
<stop stop-color="#8D5CF4"/>
<stop offset="1" stop-color="#E84A9D"/>
</linearGradient>
<linearGradient id="paint5_linear_2_1235" x1="169.375" y1="97.2188" x2="1186.5" y2="97.2188" gradientUnits="userSpaceOnUse">
<stop stop-color="#8D5CF4"/>
<stop offset="1" stop-color="#E84A9D"/>
</linearGradient>
<linearGradient id="paint6_linear_2_1235" x1="169.375" y1="97.2188" x2="1186.5" y2="97.2188" gradientUnits="userSpaceOnUse">
<stop stop-color="#8D5CF4"/>
<stop offset="1" stop-color="#E84A9D"/>
</linearGradient>
<linearGradient id="paint7_linear_2_1235" x1="169.375" y1="97.2188" x2="1186.5" y2="97.2188" gradientUnits="userSpaceOnUse">
<stop stop-color="#8D5CF4"/>
<stop offset="1" stop-color="#E84A9D"/>
</linearGradient>
<linearGradient id="paint8_linear_2_1235" x1="169.375" y1="97.2188" x2="1186.5" y2="97.2188" gradientUnits="userSpaceOnUse">
<stop stop-color="#8D5CF4"/>
<stop offset="1" stop-color="#E84A9D"/>
</linearGradient>
<linearGradient id="paint9_linear_2_1235" x1="169.375" y1="97.2188" x2="1186.5" y2="97.2188" gradientUnits="userSpaceOnUse">
<stop stop-color="#8D5CF4"/>
<stop offset="1" stop-color="#E84A9D"/>
</linearGradient>
<linearGradient id="paint10_linear_2_1235" x1="78" y1="60.5" x2="131" y2="138.5" gradientUnits="userSpaceOnUse">
<stop stop-color="#EB499B"/>
<stop offset="1" stop-color="#8E5CF3"/>
</linearGradient>
<clipPath id="clip0_2_1235">
<rect width="107" height="136" fill="white" transform="translate(25 17)"/>
</clipPath>
</defs>
</svg>
