<svg width="1217" height="170" viewBox="0 0 1217 170" fill="none" xmlns="http://www.w3.org/2000/svg">
<path d="M169.375 84.1875C169.375 69.8125 173.021 58.3958 180.312 49.9375C187.604 41.4792 198.125 37.25 211.875 37.25C219.792 37.25 226.5 38.4792 232 40.9375C237.5 43.3958 241.375 46.9583 243.625 51.625C245.125 54.7083 244.875 56.7917 242.875 57.875L235.375 61.875C232.75 63.2917 230.583 62.5 228.875 59.5C227.792 57.5833 225.771 55.8542 222.812 54.3125C219.896 52.7708 216.458 52 212.5 52C203.75 52 197.625 54.7708 194.125 60.3125C190.625 65.8125 188.875 73.7708 188.875 84.1875C188.875 94.6042 190.625 102.583 194.125 108.125C197.625 113.625 203.75 116.375 212.5 116.375C217.208 116.375 221.167 115.312 224.375 113.188C227.625 111.062 229.875 109.042 231.125 107.125C233.167 104 235.333 103.208 237.625 104.75L245.125 109.75C247.167 111.125 247.375 113.208 245.75 116C243.333 120.167 239.188 123.729 233.312 126.688C227.438 129.646 220.292 131.125 211.875 131.125C198.333 131.125 187.854 126.896 180.438 118.438C173.062 109.979 169.375 98.5625 169.375 84.1875ZM264.875 129C262.375 129 261.125 127.75 261.125 125.25V67.125C261.125 64.625 262.375 63.375 264.875 63.375H274.75C277.25 63.375 278.5 64.625 278.5 67.125V72.25H278.75C279.833 69.5833 281.646 67.2292 284.188 65.1875C286.729 63.1458 289.729 62.125 293.188 62.125C295.562 62.125 297.521 62.4167 299.062 63C300.521 63.5417 301.083 64.5417 300.75 66L299 73.4375C298.625 75.1042 297.5 75.6042 295.625 74.9375C294.542 74.5625 293.5 74.375 292.5 74.375C288.5 74.375 285.188 76.7708 282.562 81.5625C279.938 86.3542 278.625 93.3333 278.625 102.5V125.25C278.625 127.75 277.375 129 274.875 129H264.875ZM306.75 96.1875C306.75 85.5625 309.479 77.2292 314.938 71.1875C320.438 65.1458 328.604 62.125 339.438 62.125C350.271 62.125 358.417 65.1458 363.875 71.1875C369.375 77.2292 372.125 85.5625 372.125 96.1875C372.125 106.812 369.375 115.146 363.875 121.188C358.417 127.229 350.271 130.25 339.438 130.25C328.604 130.25 320.438 127.229 314.938 121.188C309.479 115.146 306.75 106.812 306.75 96.1875ZM325.25 96.1875C325.25 104.104 326.458 109.729 328.875 113.062C331.333 116.354 334.854 118 339.438 118C344.021 118 347.521 116.354 349.938 113.062C352.396 109.729 353.625 104.104 353.625 96.1875C353.625 88.2708 352.396 82.6667 349.938 79.375C347.521 76.0417 344.021 74.375 339.438 74.375C334.854 74.375 331.333 76.0417 328.875 79.375C326.458 82.6667 325.25 88.2708 325.25 96.1875ZM384.312 124.625C382.271 123.167 381.708 121.604 382.625 119.938L385.812 114.125C386.938 112.042 388.688 111.792 391.062 113.375C393.438 114.958 396.229 116.125 399.438 116.875C402.688 117.625 405.646 118 408.312 118C410.188 118 411.938 117.812 413.562 117.438C415.188 117.062 416.562 116.333 417.688 115.25C418.812 114.167 419.375 112.583 419.375 110.5C419.375 109.25 419.042 108.188 418.375 107.312C417.708 106.438 416.854 105.771 415.812 105.312C414.771 104.854 413.667 104.479 412.5 104.188C410.958 103.812 408.729 103.188 405.812 102.312C402.938 101.438 400.167 100.417 397.5 99.25C395.292 98.2917 393.125 96.9583 391 95.25C388.917 93.5 387.375 91.5625 386.375 89.4375C385.417 87.3125 384.938 84.6875 384.938 81.5625C384.938 77.3542 386.146 73.6667 388.562 70.5C391.021 67.3333 394.188 65.1458 398.062 63.9375C401.938 62.7292 406.771 62.125 412.562 62.125C416.479 62.125 420.292 62.6875 424 63.8125C427.708 64.9375 430.354 66 431.938 67C434.438 68.5833 435.062 70.2708 433.812 72.0625L430 77.625C428.833 79.2917 426.958 79.4167 424.375 78C422.417 76.9167 420.479 76.0417 418.562 75.375C416.688 74.7083 414.583 74.375 412.25 74.375C410.667 74.375 409.146 74.5417 407.688 74.875C406.229 75.2083 404.979 75.8333 403.938 76.75C402.938 77.6667 402.438 78.875 402.438 80.375C402.438 81.9583 402.896 83.2083 403.812 84.125C404.771 85 405.854 85.6458 407.062 86.0625C408.312 86.4792 409.5 86.875 410.625 87.25C412.958 88 415.312 88.7292 417.688 89.4375C420.062 90.1042 422.479 90.9167 424.938 91.875C427.062 92.7083 429.125 93.8958 431.125 95.4375C433.125 96.9792 434.583 98.9375 435.5 101.312C436.417 103.688 436.875 106.396 436.875 109.438C436.875 113.479 435.667 117.229 433.25 120.688C430.833 124.146 427.646 126.604 423.688 128.062C419.729 129.521 415.125 130.25 409.875 130.25C404 130.25 399 129.833 394.875 129C390.75 128.167 387.229 126.708 384.312 124.625ZM447.188 124.625C445.146 123.167 444.583 121.604 445.5 119.938L448.688 114.125C449.812 112.042 451.562 111.792 453.938 113.375C456.312 114.958 459.104 116.125 462.312 116.875C465.562 117.625 468.521 118 471.188 118C473.062 118 474.812 117.812 476.438 117.438C478.062 117.062 479.438 116.333 480.562 115.25C481.688 114.167 482.25 112.583 482.25 110.5C482.25 109.25 481.917 108.188 481.25 107.312C480.583 106.438 479.729 105.771 478.688 105.312C477.646 104.854 476.542 104.479 475.375 104.188C473.833 103.812 471.604 103.188 468.688 102.312C465.812 101.438 463.042 100.417 460.375 99.25C458.167 98.2917 456 96.9583 453.875 95.25C451.792 93.5 450.25 91.5625 449.25 89.4375C448.292 87.3125 447.812 84.6875 447.812 81.5625C447.812 77.3542 449.021 73.6667 451.438 70.5C453.896 67.3333 457.062 65.1458 460.938 63.9375C464.812 62.7292 469.646 62.125 475.438 62.125C479.354 62.125 483.167 62.6875 486.875 63.8125C490.583 64.9375 493.229 66 494.812 67C497.312 68.5833 497.938 70.2708 496.688 72.0625L492.875 77.625C491.708 79.2917 489.833 79.4167 487.25 78C485.292 76.9167 483.354 76.0417 481.438 75.375C479.562 74.7083 477.458 74.375 475.125 74.375C473.542 74.375 472.021 74.5417 470.562 74.875C469.104 75.2083 467.854 75.8333 466.812 76.75C465.812 77.6667 465.312 78.875 465.312 80.375C465.312 81.9583 465.771 83.2083 466.688 84.125C467.646 85 468.729 85.6458 469.938 86.0625C471.188 86.4792 472.375 86.875 473.5 87.25C475.833 88 478.188 88.7292 480.562 89.4375C482.938 90.1042 485.354 90.9167 487.812 91.875C489.938 92.7083 492 93.8958 494 95.4375C496 96.9792 497.458 98.9375 498.375 101.312C499.292 103.688 499.75 106.396 499.75 109.438C499.75 113.479 498.542 117.229 496.125 120.688C493.708 124.146 490.521 126.604 486.562 128.062C482.604 129.521 478 130.25 472.75 130.25C466.875 130.25 461.875 129.833 457.75 129C453.625 128.167 450.104 126.708 447.188 124.625ZM508.25 84.1875C508.25 69.8125 511.896 58.3958 519.188 49.9375C526.479 41.4792 537 37.25 550.75 37.25C558.667 37.25 565.375 38.4792 570.875 40.9375C576.375 43.3958 580.25 46.9583 582.5 51.625C584 54.7083 583.75 56.7917 581.75 57.875L574.25 61.875C571.625 63.2917 569.458 62.5 567.75 59.5C566.667 57.5833 564.646 55.8542 561.688 54.3125C558.771 52.7708 555.333 52 551.375 52C542.625 52 536.5 54.7708 533 60.3125C529.5 65.8125 527.75 73.7708 527.75 84.1875C527.75 94.6042 529.5 102.583 533 108.125C536.5 113.625 542.625 116.375 551.375 116.375C556.083 116.375 560.042 115.312 563.25 113.188C566.5 111.062 568.75 109.042 570 107.125C572.042 104 574.208 103.208 576.5 104.75L584 109.75C586.042 111.125 586.25 113.208 584.625 116C582.208 120.167 578.062 123.729 572.188 126.688C566.312 129.646 559.167 131.125 550.75 131.125C537.208 131.125 526.729 126.896 519.312 118.438C511.938 109.979 508.25 98.5625 508.25 84.1875ZM603.75 129C601.25 129 600 127.75 600 125.25V40.5C600 38 601.25 36.75 603.75 36.75H613.75C616.25 36.75 617.5 38 617.5 40.5V65.75C617.5 67.4167 617.417 69.0833 617.25 70.75H617.625C619.542 67.4583 621.979 65.2083 624.938 64C627.896 62.75 631.458 62.125 635.625 62.125C642.125 62.125 647.5 64.1667 651.75 68.25C656 72.3333 658.125 79.7917 658.125 90.625V125.25C658.125 127.75 656.875 129 654.375 129H644.375C641.875 129 640.625 127.75 640.625 125.25V95.125C640.625 86.0417 640 80.3125 638.75 77.9375C637.5 75.5625 634.812 74.375 630.688 74.375C626.312 74.375 623.021 76.0833 620.812 79.5C618.604 82.875 617.5 89.9167 617.5 100.625V125.25C617.5 127.75 616.25 129 613.75 129H603.75ZM671.5 111.5C671.5 103.167 675.479 97.125 683.438 93.375C691.396 89.625 700.479 87.625 710.688 87.375V84.875C710.688 81.0417 709.729 78.3333 707.812 76.75C705.896 75.1667 703.229 74.375 699.812 74.375C697.396 74.375 695.25 74.7292 693.375 75.4375C691.542 76.1042 689.938 76.8958 688.562 77.8125C687.229 78.6875 686.021 79.5833 684.938 80.5C683.021 82.1667 681.438 82.25 680.188 80.75L675 74.375C673.708 72.7917 674.021 71.1667 675.938 69.5C677.396 68.2083 679.083 67.0833 681 66.125C682.958 65.1667 685.542 64.2708 688.75 63.4375C691.958 62.5625 696.125 62.125 701.25 62.125C709.917 62.125 716.562 64.125 721.188 68.125C725.854 72.125 728.188 78.0208 728.188 85.8125V125.25C728.188 127.75 726.938 129 724.438 129H714.188C711.938 129 710.812 127.75 710.812 125.25V123.375H710.688C708.229 125.75 705.271 127.5 701.812 128.625C698.396 129.708 695.25 130.25 692.375 130.25C685.542 130.25 680.354 128.583 676.812 125.25C673.271 121.875 671.5 117.292 671.5 111.5ZM690 111.125C690 112.583 690.292 113.854 690.875 114.938C691.458 115.979 692.375 116.75 693.625 117.25C694.875 117.75 696.271 118 697.812 118C699.938 118 702 117.708 704 117.125C706 116.542 708.229 115.167 710.688 113V99.4375C703.688 100.229 699 101.25 696.625 102.5C694.25 103.75 692.542 105.042 691.5 106.375C690.5 107.708 690 109.292 690 111.125ZM749 129C746.5 129 745.25 127.75 745.25 125.25V67.125C745.25 64.625 746.5 63.375 749 63.375H759C761.5 63.375 762.75 64.625 762.75 67.125V125.25C762.75 127.75 761.5 129 759 129H749ZM749 53.75C746.5 53.75 745.25 52.5 745.25 50V42C745.25 39.5 746.5 38.25 749 38.25H759C761.5 38.25 762.75 39.5 762.75 42V50C762.75 52.5 761.5 53.75 759 53.75H749ZM783.5 129C781 129 779.75 127.75 779.75 125.25V67.125C779.75 64.625 781 63.375 783.5 63.375H793.375C795.875 63.375 797.125 64.625 797.125 67.125V70.75H797.375C799.292 67.4583 801.729 65.2083 804.688 64C807.646 62.75 811.208 62.125 815.375 62.125C821.875 62.125 827.25 64.1667 831.5 68.25C835.75 72.3333 837.875 79.7917 837.875 90.625V125.25C837.875 127.75 836.625 129 834.125 129H824.125C821.625 129 820.375 127.75 820.375 125.25V95.125C820.375 86.0417 819.75 80.3125 818.5 77.9375C817.25 75.5625 814.562 74.375 810.438 74.375C806.062 74.375 802.771 76.0833 800.562 79.5C798.354 82.875 797.25 89.9167 797.25 100.625V125.25C797.25 127.75 796 129 793.5 129H783.5ZM901.062 122.312C898.479 120.354 897.854 118.375 899.188 116.375L904 109.125C905.583 106.75 907.896 106.625 910.938 108.75C913.271 110.375 916.312 112.062 920.062 113.812C923.854 115.521 927.833 116.375 932 116.375C934.917 116.375 937.729 116.042 940.438 115.375C943.146 114.708 945.208 113.417 946.625 111.5C948.042 109.583 948.75 107.312 948.75 104.688C948.75 102.812 948.438 101.167 947.812 99.75C947.188 98.3333 946.167 97.1667 944.75 96.25C943.333 95.3333 941.875 94.5625 940.375 93.9375C937.75 92.8542 934.438 91.7917 930.438 90.75C926.479 89.6667 922.562 88.375 918.688 86.875C915.229 85.5417 912.062 83.7083 909.188 81.375C906.312 79.0417 904.083 76.4167 902.5 73.5C900.917 70.5833 900.125 66.6875 900.125 61.8125C900.125 56.0208 902 51.0625 905.75 46.9375C909.5 42.8125 913.812 40.1667 918.688 39C923.562 37.8333 928.479 37.25 933.438 37.25C938.354 37.25 943.417 38 948.625 39.5C953.875 41 957.833 42.875 960.5 45.125C963.125 47.3333 963.771 49.3333 962.438 51.125L957.375 57.9375C955.667 60.2708 953.375 60.4583 950.5 58.5C948.667 57.25 946.146 55.8542 942.938 54.3125C939.771 52.7708 936.458 52 933 52C930.542 52 928.271 52.2083 926.188 52.625C924.146 53.0417 922.333 54.0417 920.75 55.625C919.167 57.2083 918.375 59.1667 918.375 61.5C918.375 63.75 918.958 65.5833 920.125 67C921.292 68.375 922.583 69.4167 924 70.125C925.417 70.7917 926.854 71.3542 928.312 71.8125C932.812 73.2708 936.833 74.5625 940.375 75.6875C943.917 76.7708 947.188 77.9792 950.188 79.3125C954.354 81.1875 957.542 83.0625 959.75 84.9375C961.958 86.8125 963.771 89.375 965.188 92.625C966.646 95.875 967.375 99.75 967.375 104.25C967.375 110.917 965.25 116.438 961 120.812C956.75 125.146 952.021 127.938 946.812 129.188C941.646 130.479 936.604 131.125 931.688 131.125C924.438 131.125 918.542 130.417 914 129C909.458 127.625 905.146 125.396 901.062 122.312ZM975.75 68.25C974.833 65 975.521 63.375 977.812 63.375H988.375C990.375 63.375 991.625 64.4375 992.125 66.5625L1000.56 103.188C1001.06 105.312 1001.5 107.354 1001.88 109.312C1002.25 111.271 1002.48 112.875 1002.56 114.125H1002.94C1003.02 112.875 1003.25 111.25 1003.62 109.25C1004 107.208 1004.44 105.188 1004.94 103.188L1013.81 66.5625C1014.31 64.4375 1015.56 63.375 1017.56 63.375H1028.94C1030.94 63.375 1032.19 64.4375 1032.69 66.5625L1041.56 103.188C1042.06 105.188 1042.5 107.208 1042.88 109.25C1043.25 111.25 1043.48 112.875 1043.56 114.125H1043.94C1044.02 112.875 1044.25 111.271 1044.62 109.312C1045 107.354 1045.44 105.312 1045.94 103.188L1054.38 66.5625C1054.88 64.4375 1056.12 63.375 1058.12 63.375H1068.69C1070.98 63.375 1071.67 65 1070.75 68.25L1054.5 124.812C1053.71 127.604 1052.19 129 1049.94 129H1038.62C1036.25 129 1034.73 127.604 1034.06 124.812L1025 87.75C1024.46 85.625 1024.06 83.9167 1023.81 82.625C1023.6 81.3333 1023.46 79.8958 1023.38 78.3125H1023.12C1023.04 79.8958 1022.88 81.3333 1022.62 82.625C1022.42 83.9167 1022.04 85.625 1021.5 87.75L1012.44 124.812C1011.77 127.604 1010.25 129 1007.88 129H996.562C994.312 129 992.792 127.604 992 124.812L975.75 68.25ZM1077 111.5C1077 103.167 1080.98 97.125 1088.94 93.375C1096.9 89.625 1105.98 87.625 1116.19 87.375V84.875C1116.19 81.0417 1115.23 78.3333 1113.31 76.75C1111.4 75.1667 1108.73 74.375 1105.31 74.375C1102.9 74.375 1100.75 74.7292 1098.88 75.4375C1097.04 76.1042 1095.44 76.8958 1094.06 77.8125C1092.73 78.6875 1091.52 79.5833 1090.44 80.5C1088.52 82.1667 1086.94 82.25 1085.69 80.75L1080.5 74.375C1079.21 72.7917 1079.52 71.1667 1081.44 69.5C1082.9 68.2083 1084.58 67.0833 1086.5 66.125C1088.46 65.1667 1091.04 64.2708 1094.25 63.4375C1097.46 62.5625 1101.62 62.125 1106.75 62.125C1115.42 62.125 1122.06 64.125 1126.69 68.125C1131.35 72.125 1133.69 78.0208 1133.69 85.8125V125.25C1133.69 127.75 1132.44 129 1129.94 129H1119.69C1117.44 129 1116.31 127.75 1116.31 125.25V123.375H1116.19C1113.73 125.75 1110.77 127.5 1107.31 128.625C1103.9 129.708 1100.75 130.25 1097.88 130.25C1091.04 130.25 1085.85 128.583 1082.31 125.25C1078.77 121.875 1077 117.292 1077 111.5ZM1095.5 111.125C1095.5 112.583 1095.79 113.854 1096.38 114.938C1096.96 115.979 1097.88 116.75 1099.12 117.25C1100.38 117.75 1101.77 118 1103.31 118C1105.44 118 1107.5 117.708 1109.5 117.125C1111.5 116.542 1113.73 115.167 1116.19 113V99.4375C1109.19 100.229 1104.5 101.25 1102.12 102.5C1099.75 103.75 1098.04 105.042 1097 106.375C1096 107.708 1095.5 109.292 1095.5 111.125ZM1154.5 154C1152 154 1150.75 152.75 1150.75 150.25V67.125C1150.75 64.625 1152 63.375 1154.5 63.375H1164.38C1166.46 63.375 1167.58 64.625 1167.75 67.125L1168 70.75H1168.25C1170.42 67.1667 1172.83 64.8333 1175.5 63.75C1178.17 62.6667 1181.38 62.125 1185.12 62.125C1194.92 62.125 1201.79 65.5208 1205.75 72.3125C1209.75 79.0625 1211.75 87.0208 1211.75 96.1875C1211.75 105.354 1209.75 113.333 1205.75 120.125C1201.79 126.875 1194.92 130.25 1185.12 130.25C1181.38 130.25 1178.17 129.708 1175.5 128.625C1172.83 127.542 1170.42 125.208 1168.25 121.625H1168C1168.17 123.292 1168.25 124.958 1168.25 126.625V150.25C1168.25 152.75 1167 154 1164.5 154H1154.5ZM1168.25 99C1168.25 104.625 1169.35 109.208 1171.56 112.75C1173.81 116.25 1176.5 118 1179.62 118C1185.25 118 1188.92 116.042 1190.62 112.125C1192.38 108.167 1193.25 102.854 1193.25 96.1875C1193.25 89.5208 1192.38 84.2292 1190.62 80.3125C1188.92 76.3542 1185.25 74.375 1179.62 74.375C1176.5 74.375 1173.81 76.1458 1171.56 79.6875C1169.35 83.1875 1168.25 87.75 1168.25 93.375V99Z" fill="white"/>
<g clip-path="url(#clip0_2_1235)">
<path d="M0 17H106.052C106.052 17 110.878 36.8809 98.75 39.0812C58.4755 46.388 38.7081 4.10855 23 35.0845C13.7435 53.3381 16.6416 89.338 16.6416 89.338H82.9285C82.9285 89.338 80.704 112.378 79.75 119.125C74.5 156.262 0 108.336 0 108.336V17Z" fill="white"/>
<path d="M106 152.805H1.55981C1.55981 152.805 -2.20013 132.924 7.25001 130.724C38.6325 123.417 67.292 165.696 83 134.72C92.2565 116.467 89.3585 80.4669 89.3585 80.4669H23.0715C23.0715 80.4669 25.2961 57.4268 26.25 50.6793C31.5 13.5428 106 61.469 106 61.469V152.805Z" fill="white"/>
</g>
<defs>
<clipPath id="clip0_2_1235">
<rect width="107" height="136" fill="white" transform="translate(0 17)"/>
</clipPath>
</defs>
</svg>
